<?xml version="1.0" encoding="UTF-8"?>
<svg version="1.1" xmlns="http://www.w3.org/2000/svg" width="512" height="512">
<path d="M0 0 C1.7832288 -0.00697832 3.56645735 -0.01401928 5.34968567 -0.02111816 C11.01698108 -0.0403973 16.68423787 -0.04529362 22.3515625 -0.046875 C23.31548038 -0.04746414 24.27939827 -0.04805328 25.27252579 -0.04866028 C53.18557208 -0.06071143 80.95880904 0.09486786 108.75177002 2.97528076 C111.02353683 3.20793571 113.29631233 3.42622455 115.56982422 3.64111328 C228.19568898 14.37709924 228.19568898 14.37709924 256.56640625 47.30859375 C260.85184634 53.06604097 261.10103962 59.04767915 261.10519695 66.07230949 C261.10694999 66.74205502 261.10870303 67.41180055 261.11050919 68.10184139 C261.11515788 70.34410935 261.11270661 72.58631214 261.11027527 74.82858276 C261.11214381 76.45323143 261.11444468 78.07787966 261.11714059 79.70252717 C261.12325963 84.16575138 261.12312487 88.62895686 261.12194622 93.09218431 C261.12174224 97.90618571 261.12726066 102.72018109 261.13200378 107.53417969 C261.14031127 116.96491167 261.14305866 126.3956374 261.14361616 135.82637273 C261.14409124 143.49111305 261.14614557 151.15585131 261.14931679 158.82059097 C261.15812333 180.54760401 261.16273612 202.27461211 261.16198631 224.00162695 C261.16192638 225.75870003 261.16192638 225.75870003 261.16186523 227.55126953 C261.16182435 228.72408026 261.16178347 229.89689099 261.16174135 231.10524143 C261.1613348 250.11751828 261.17090678 269.12977532 261.1850036 288.14204644 C261.19936118 307.65985061 261.20627414 327.17764513 261.20540982 346.69545472 C261.20507766 357.65480582 261.20783333 368.61413616 261.21858788 379.57348251 C261.2276847 388.9033612 261.22987483 398.23320971 261.22307845 407.56309091 C261.21980923 412.3235212 261.21977111 417.08389358 261.2284317 421.84431839 C261.23627971 426.20289589 261.23488267 430.56136939 261.22614757 434.9199443 C261.22460884 436.49594039 261.22644275 438.07194418 261.23200765 439.6479312 C261.27330009 452.17240645 260.74582571 461.13917609 251.8515625 470.703125 C247.70356891 474.71845355 243.02810703 477.46304479 237.9765625 480.203125 C237.22890625 480.62335938 236.48125 481.04359375 235.7109375 481.4765625 C182.51260538 509.88519564 107.60573917 512.27816625 48.296875 512.40625 C47.38640285 512.40907738 46.47593071 512.41190475 45.5378685 512.41481781 C40.69549031 512.42969311 35.85314089 512.43898937 31.01074219 512.44335938 C27.1177404 512.44769055 23.22496694 512.46138831 19.33203125 512.484375 C-2.02809568 512.60774327 -23.27444386 512.31828232 -44.58984375 510.8359375 C-45.91673281 510.74421642 -45.91673281 510.74421642 -47.2704277 510.6506424 C-174.6575216 501.6332864 -174.6575216 501.6332864 -207.2109375 467.3359375 C-212.60674504 460.98656052 -213.14729706 454.4020512 -213.15207195 446.33394051 C-213.15382499 445.66419498 -213.15557803 444.99444945 -213.15738419 444.30440861 C-213.16203288 442.06214065 -213.15958161 439.81993786 -213.15715027 437.57766724 C-213.15901881 435.95301857 -213.16131968 434.32837034 -213.16401559 432.70372283 C-213.17013463 428.24049862 -213.16999987 423.77729314 -213.16882122 419.31406569 C-213.16861724 414.50006429 -213.17413566 409.68606891 -213.17887878 404.87207031 C-213.18718627 395.44133833 -213.18993366 386.0106126 -213.19049116 376.57987727 C-213.19096624 368.91513695 -213.19302057 361.25039869 -213.19619179 353.58565903 C-213.20499833 331.85864599 -213.20961112 310.13163789 -213.20886131 288.40462305 C-213.20882136 287.233241 -213.2087814 286.06185895 -213.20874023 284.85498047 C-213.20869935 283.68216974 -213.20865847 282.50935901 -213.20861635 281.30100857 C-213.2082098 262.28873172 -213.21778178 243.27647468 -213.2318786 224.26420356 C-213.24623618 204.74639939 -213.25314914 185.22860487 -213.25228482 165.71079528 C-213.25195266 154.75144418 -213.25470833 143.79211384 -213.26546288 132.83276749 C-213.2745597 123.5028888 -213.27674983 114.17304029 -213.26995345 104.84315909 C-213.26668423 100.0827288 -213.26664611 95.32235642 -213.2753067 90.56193161 C-213.28315471 86.20335411 -213.28175767 81.84488061 -213.27302257 77.4863057 C-213.27148384 75.91030961 -213.27331775 74.33430582 -213.27888265 72.7583188 C-213.31811497 60.85870127 -213.10508183 51.96050759 -204.7734375 42.703125 C-189.85852042 29.14410948 -166.97762152 19.23762708 -146.8984375 16.828125 C-144.0234375 17.203125 -144.0234375 17.203125 -141.7734375 19.265625 C-138.11005393 21.84664524 -136.02943685 21.32366975 -131.72265625 20.69921875 C-128.21919235 20.05531149 -124.72682769 19.38124301 -121.25 18.60546875 C-119.0234375 18.203125 -119.0234375 18.203125 -115.0234375 18.203125 C-114.9409375 17.275 -114.8584375 16.346875 -114.7734375 15.390625 C-114.0234375 12.203125 -114.0234375 12.203125 -112.42773438 10.58398438 C-109.23464999 8.75010082 -106.4540972 8.41220223 -102.8046875 7.921875 C-102.08666458 7.82316101 -101.36864166 7.72444702 -100.62886047 7.6227417 C-98.26197658 7.30251205 -95.89313055 7.00180614 -93.5234375 6.703125 C-92.70942474 6.59673706 -91.89541199 6.49034912 -91.05673218 6.3807373 C-60.87687587 2.43804356 -30.43974501 0.07426 0 0 Z " fill="#020202" transform="translate(232.0234375,-0.203125)"/>
<path d="M0 0 C3.90193669 1.52555686 7.54071977 3.29867248 11.25 5.25 C37.45352456 18.49141786 67.97064971 23.48113532 96.8125 27.5 C97.56846466 27.60638794 98.32442932 27.71277588 99.103302 27.8223877 C118.90432382 30.60557937 138.6585623 33.28489223 158.66845703 33.84228516 C160.64497818 33.97598491 162.61312922 34.2255105 164.5750885 34.49978638 C169.10352097 35.07024252 173.57039995 35.15484553 178.13012695 35.16113281 C179.00832092 35.16609772 179.88651489 35.17106262 180.7913208 35.17617798 C183.6903159 35.1907373 186.5892556 35.19760431 189.48828125 35.203125 C191.00200852 35.20736607 191.00200852 35.20736607 192.54631615 35.21169281 C197.92565543 35.22668772 203.30496807 35.23590546 208.68432617 35.24023438 C213.04053427 35.24455363 217.39653695 35.25818403 221.75268555 35.28125 C259.66775239 35.47803474 297.39790485 34.17454898 335 29 C336.24797363 28.83274414 337.49594727 28.66548828 338.78173828 28.49316406 C372.05941526 24.00060511 406.70286103 18.45477351 436.55859375 2.3125 C439 1 439 1 442 0 C442.11689896 14.23849233 442.20468743 28.47691006 442.25906086 42.71578407 C442.28515713 49.32745632 442.32055712 55.93880624 442.37719727 62.55029297 C442.43151387 68.93046615 442.46142031 75.31032925 442.47438622 81.69071579 C442.48362656 84.12521624 442.50167075 86.55969966 442.52865028 88.99406815 C442.56493412 92.40348263 442.56994537 95.81161499 442.56762695 99.22119141 C442.58560333 100.22820099 442.60357971 101.23521057 442.62210083 102.2727356 C442.58913019 106.75210435 442.52762468 109.9676666 439.64909363 113.5430603 C416.34850679 135.15352215 375.87146376 139.62340786 345.8125 144.0625 C344.95548492 144.19039917 344.09846985 144.31829834 343.21548462 144.45007324 C327.28904525 146.81384554 311.37035821 148.58777263 295.31417847 149.81188965 C292.71373588 150.02326927 290.11733841 150.26850438 287.51977539 150.51269531 C268.22094095 152.23618528 248.9846989 152.30872843 229.62475586 152.26074219 C225.01695318 152.24942428 220.40938351 152.2560896 215.80158901 152.26761055 C184.52065565 152.33410805 153.39082268 151.41767572 122.3125 147.625 C120.43214519 147.40204359 118.55177377 147.17922727 116.67138672 146.95654297 C27.58285116 136.28453905 27.58285116 136.28453905 2 113 C-0.1145014 109.8282479 -0.2487713 109.08621313 -0.24050903 105.46321106 C-0.24325836 104.53353012 -0.24600769 103.60384918 -0.24884033 102.64599609 C-0.24164978 101.62820068 -0.23445923 100.61040527 -0.22705078 99.56176758 C-0.22734283 98.48843674 -0.22763489 97.4151059 -0.22793579 96.30924988 C-0.22654017 92.75426201 -0.21096787 89.19948259 -0.1953125 85.64453125 C-0.1915832 83.18259292 -0.18873584 80.72065311 -0.18673706 78.25871277 C-0.17909409 71.77316198 -0.15943983 65.28770051 -0.1373291 58.80218506 C-0.116885 52.18649504 -0.10773841 45.57079062 -0.09765625 38.95507812 C-0.07619463 25.97001394 -0.04243409 12.98501171 0 0 Z " fill="#D9E5EA" transform="translate(35,214)"/>
<path d="M0 0 C2.94766026 1.1693165 5.83850707 2.36056933 8.6796875 3.76953125 C17.91789365 8.28357931 27.09782535 12.14217429 37 15 C37.78455566 15.22896973 38.56911133 15.45793945 39.37744141 15.69384766 C70.69368391 24.68849175 102.68486289 28.67811138 135 32 C136.8572168 32.19335938 136.8572168 32.19335938 138.75195312 32.390625 C167.935208 35.35303395 197.44073303 35.27157969 226.75 35.3125 C227.9811875 35.31466774 227.9811875 35.31466774 229.23724747 35.31687927 C257.79963473 35.35725449 286.03467782 34.30556482 314.45776367 31.26885986 C316.88432857 31.01223309 319.31178545 30.76882118 321.74023438 30.53076172 C350.4503743 27.69652037 379.52781964 23.00087293 407 14 C407.85464844 13.72687988 408.70929688 13.45375977 409.58984375 13.17236328 C419.45475834 9.99813507 428.70400892 6.52529041 437.6640625 1.28515625 C440 0 440 0 442 0 C442.16380344 14.07346602 442.2866319 28.14678341 442.3626852 42.2210083 C442.39919043 48.7565623 442.44869401 55.29147515 442.52807617 61.82666016 C442.60422852 68.13555182 442.64601067 74.44382745 442.6641407 80.75314331 C442.67705792 83.15812882 442.70228288 85.56308126 442.7401104 87.96780396 C442.79105784 91.34125157 442.79791799 94.71216602 442.79467773 98.0859375 C442.83242813 99.57163994 442.83242813 99.57163994 442.87094116 101.08735657 C442.80383533 107.55996195 441.3165257 110.81579023 436.76118565 115.43190002 C417.57625804 132.51350898 384.15560845 137.12546648 359.85668945 141.47070312 C357.3287155 141.93909451 354.82428244 142.4687411 352.3125 143.015625 C344.85015744 144.52256611 337.25065253 145.1923912 329.6875 146 C328.05264138 146.17681326 326.41779447 146.35373473 324.78295898 146.53076172 C321.59036397 146.87518709 318.39741343 147.21599872 315.20410156 147.55371094 C311.89279201 147.90392265 308.58297411 148.26619091 305.2734375 148.6328125 C300.18879297 149.17945958 295.09841736 149.6046021 290 150 C288.90316895 150.09023438 287.80633789 150.18046875 286.67626953 150.2734375 C238.69060213 154.05053032 189.27718094 153.85693723 141.3737793 149.22766113 C138.72314823 148.97344808 136.07162724 148.7300473 133.41992188 148.48730469 C131.52731747 148.31213264 129.63473884 148.13668189 127.7421875 147.9609375 C126.42448868 147.83992172 126.42448868 147.83992172 125.08016968 147.71646118 C119.64986033 147.20308428 114.31195579 146.47100023 108.9453125 145.484375 C105.5137626 144.92003523 102.0856477 144.59400077 98.625 144.25 C80.35886877 142.2890834 61.56050208 138.37853092 44 133 C43.31115723 132.79439453 42.62231445 132.58878906 41.91259766 132.37695312 C27.17764438 127.93813288 11.59742534 122.72598233 1 111 C-0.17870771 108.64258458 -0.12327537 107.24957602 -0.12025452 104.62142944 C-0.12162918 103.70153732 -0.12300385 102.7816452 -0.12442017 101.83387756 C-0.12082489 100.82183762 -0.11722961 99.80979767 -0.11352539 98.76708984 C-0.11367142 97.7036586 -0.11381744 96.64022736 -0.1139679 95.54457092 C-0.11326919 92.01667263 -0.10547871 88.48882661 -0.09765625 84.9609375 C-0.09579192 82.51998931 -0.09436809 80.07904074 -0.09336853 77.63809204 C-0.08954451 71.20352145 -0.0797152 64.76897332 -0.06866455 58.33441162 C-0.05844795 51.77242334 -0.05387038 45.21043144 -0.04882812 38.6484375 C-0.03809284 25.7656154 -0.02120915 12.88280889 0 0 Z " fill="#D9E5EA" transform="translate(35,345)"/>
<path d="M0 0 C1.10170532 0.55393433 2.20341064 1.10786865 3.33850098 1.67858887 C4.79660232 2.41013177 6.25473378 3.14161461 7.71289062 3.87304688 C8.43752502 4.23758972 9.16215942 4.60213257 9.90875244 4.97772217 C14.69418785 7.37623338 19.46344253 9.67113835 24.5 11.5 C25.25877441 11.77569824 26.01754883 12.05139648 26.79931641 12.33544922 C65.6246006 25.81864398 107.48479475 30.56219722 148.25 33.6875 C149.04331726 33.74834778 149.83663452 33.80919556 150.6539917 33.87188721 C156.10051475 34.28355208 161.54910695 34.65147651 167 35 C167.73730347 35.0494577 168.47460693 35.09891541 169.23425293 35.14987183 C184.60261354 36.15968827 199.98168595 36.18751144 215.37646484 36.18530273 C218.27073498 36.18522208 221.16484476 36.19208443 224.05908203 36.20581055 C243.67658059 36.2972937 263.11983265 35.67689292 282.68634033 34.24154663 C285.4984541 34.0365598 288.31061599 33.84563345 291.12451172 33.66723633 C309.66556231 32.48503244 327.99846177 30.3361424 346.375 27.625 C347.3443045 27.48405914 348.31360901 27.34311829 349.31228638 27.19790649 C367.61135107 24.51318799 385.69943181 20.84999172 403.4375 15.5625 C404.93458496 15.11982788 404.93458496 15.11982788 406.46191406 14.66821289 C416.81083497 11.54696361 426.55330356 7.74881842 436.22558594 2.89672852 C437.30676697 2.35476334 438.387948 1.81279816 439.50189209 1.25440979 C440.3262677 0.84045456 441.15064331 0.42649933 442 0 C442.09352161 14.10814476 442.16375132 28.21624133 442.20724869 42.32463264 C442.22812505 48.8757108 442.25644436 55.42658074 442.30175781 61.97753906 C442.34521266 68.29934613 442.36913673 74.6209529 442.37950897 80.9428978 C442.3869009 83.35505197 442.40133548 85.76719515 442.42292023 88.17926407 C442.45194837 91.55741332 442.4559561 94.93473441 442.45410156 98.31298828 C442.46848267 99.31064713 442.48286377 100.30830597 442.49768066 101.3361969 C442.46267615 107.22724423 441.8679803 110.48401735 438 115 C416.03668461 135.38842649 376.80209526 139.20509933 348.6875 143.6875 C347.74496368 143.83806854 346.80242737 143.98863708 345.83132935 144.14376831 C329.99804515 146.65796325 314.17110509 148.76347909 298.1875 150.0625 C297.28708984 150.14048828 296.38667969 150.21847656 295.45898438 150.29882812 C278.73853939 151.68361515 262.01393597 152.17171666 245.2421875 152.23828125 C244.2931039 152.24314608 243.34402031 152.2480109 242.36617661 152.25302315 C235.20245517 152.28925019 228.03880561 152.30570624 220.875 152.3125 C219.82294876 152.31365059 218.77089752 152.31480118 217.68696594 152.31598663 C185.60758441 152.34036225 153.88054684 151.91340278 122 148 C120.16232061 147.78311751 118.32459193 147.56665228 116.48681641 147.35058594 C22.30251933 136.10351246 22.30251933 136.10351246 1.43001842 112.20219803 C-0.22668422 109.65091111 -0.37107671 108.35439851 -0.36076355 105.34295654 C-0.36488754 104.41190094 -0.36901154 103.48084534 -0.3732605 102.52157593 C-0.36247467 101.50737579 -0.35168884 100.49317566 -0.34057617 99.44824219 C-0.34101425 98.37476532 -0.34145233 97.30128845 -0.34190369 96.19528198 C-0.33981299 92.64562824 -0.31646801 89.09644628 -0.29296875 85.546875 C-0.28737381 83.08636737 -0.28310323 80.6258564 -0.28010559 78.16534424 C-0.26864885 71.68797587 -0.23917424 65.21080917 -0.20599365 58.73352051 C-0.17531082 52.12445809 -0.16160406 45.5153631 -0.14648438 38.90625 C-0.11430558 25.93741394 -0.0636753 12.96871769 0 0 Z " fill="#D9E5EA" transform="translate(35,83)"/>
<path d="M0 0 C4.14849052 0.01144073 8.29672557 0.0045753 12.4452076 -0.00688362 C31.13020244 -0.05058724 49.61723267 0.38627243 68.24447632 2.01049805 C71.6811721 2.30642581 75.11990374 2.56076996 78.5602417 2.80996704 C113.01141176 5.32473066 147.9685596 9.30130166 181.15063477 19.26074219 C182.00351074 19.51581543 182.85638672 19.77088867 183.73510742 20.03369141 C219.10961983 30.79593168 219.10961983 30.79593168 226.15063477 42.26074219 C226.71313477 45.76074219 226.71313477 45.76074219 225.15063477 49.26074219 C202.73459241 78.08136807 141.62983278 80.64278423 108.58665466 84.82554626 C97.61043416 86.17934229 86.6149325 87.17415637 75.58813477 88.01074219 C74.80981293 88.0698175 74.03149109 88.12889282 73.22958374 88.1897583 C53.46050065 89.66218951 33.72521196 90.46669548 13.90063477 90.44824219 C12.38107178 90.44833282 12.38107178 90.44833282 10.83081055 90.44842529 C-5.41010384 90.43487229 -21.62243295 90.0479267 -37.84936523 89.38574219 C-38.83569946 89.34653656 -39.82203369 89.30733093 -40.83825684 89.26693726 C-62.38437697 88.38907387 -83.82335081 86.58536829 -105.22436523 83.94824219 C-106.1019046 83.84058533 -106.97944397 83.73292847 -107.88357544 83.62200928 C-195.00167323 72.84132791 -195.00167323 72.84132791 -214.84545898 49.21777344 C-216.14404088 46.68629666 -216.21855093 45.07189113 -215.84936523 42.26074219 C-207.62883786 28.50835617 -183.93656104 22.27754892 -169.47436523 18.51074219 C-164.26848254 17.2024557 -164.26848254 17.2024557 -159.84936523 14.26074219 C-159.12954009 11.94325634 -158.45828201 9.6098078 -157.84936523 7.26074219 C-154.62346502 6.55727625 -151.39329051 5.87583517 -148.16186523 5.19824219 C-147.24985352 4.99908203 -146.3378418 4.79992187 -145.39819336 4.59472656 C-144.51196289 4.41103516 -143.62573242 4.22734375 -142.71264648 4.03808594 C-141.90093994 3.865271 -141.0892334 3.69245605 -140.25292969 3.5144043 C-137.45451899 3.21907177 -135.52307603 3.3649409 -132.84936523 4.26074219 C-132.36967285 4.93379395 -131.88998047 5.6068457 -131.39575195 6.30029297 C-129.98629119 8.53497855 -129.98629119 8.53497855 -127.24438477 8.71728516 C-118.64358884 8.47231307 -110.24180311 7.58739439 -101.72436523 6.38574219 C-99.64527139 6.10476696 -97.56568704 5.82763848 -95.48605347 5.5506897 C-93.46954757 5.28197171 -91.45339299 5.01072667 -89.43725586 4.73925781 C-59.75174907 0.78011292 -29.91098744 -0.08329279 0 0 Z " fill="#9DBDCB" transform="translate(250.849365234375,14.7392578125)"/>
<path d="M0 0 C6.76048055 0.19872942 12.98560962 1.16469484 19.55810547 2.71972656 C41.3428311 7.49777648 63.30945408 9.74457792 85.49560547 11.65722656 C86.46805206 11.74199249 87.44049866 11.82675842 88.44241333 11.91409302 C112.08023158 13.95171122 135.62456796 14.63826521 159.34716797 14.60009766 C163.31074834 14.59472298 167.27421593 14.60008872 171.23779297 14.60644531 C196.97737099 14.69094669 196.97737099 14.69094669 222.61885071 12.69224548 C226.24073243 12.30182022 229.85546961 12.206285 233.49560547 12.15722656 C234.23230469 12.12822266 234.96900391 12.09921875 235.72802734 12.06933594 C239.24827626 12.02799607 241.27819937 12.17686995 244.16748047 14.26660156 C246.35772307 17.45035627 246.16289996 19.69991269 245.68310547 23.46972656 C242.93433405 27.09222615 239.77768373 27.34359436 235.50048828 28.09423828 C230.86033391 28.71265747 226.2339834 28.89927858 221.55810547 29.03222656 C219.68039833 29.09292274 217.80278718 29.15667323 215.92529297 29.22363281 C215.10915527 29.24756104 214.29301758 29.27148926 213.45214844 29.29614258 C210.5693922 29.43752768 210.5693922 29.43752768 207.28710938 29.97460938 C200.81775138 30.81054615 194.28839801 30.63325638 187.77685547 30.63769531 C186.30532271 30.64177123 184.83379051 30.64605331 183.36225891 30.65052795 C178.63586171 30.66213113 173.90951229 30.66070334 169.18310547 30.65722656 C168.37987728 30.65695969 167.57664909 30.65669281 166.74908066 30.65641785 C130.15273176 30.64108678 94.10795679 29.30999736 57.77484131 24.73077393 C55.71063714 24.4731625 53.64562926 24.22361084 51.58007812 23.97705078 C38.53962225 22.41815693 25.59367153 20.6623849 12.74560547 17.90722656 C11.82223389 17.70943604 10.8988623 17.51164551 9.94750977 17.30786133 C4.9099455 16.16263837 0.30937756 14.79210283 -4.31689453 12.46972656 C-5.7214719 9.66057182 -5.5658461 7.58162122 -5.31689453 4.46972656 C-3.81057592 1.75064716 -3.10047194 0.62858883 0 0 Z " fill="#040505" transform="translate(92.31689453125,155.5302734375)"/>
<path d="M0 0 C1.90138472 0.4223562 3.79681402 0.87191734 5.6875 1.33984375 C13.9207804 3.27556075 22.21583288 4.66016716 30.5625 6 C31.36759003 6.13006439 32.17268005 6.26012878 33.00216675 6.39413452 C53.79609054 9.73586399 74.62975537 12.24325596 95.70019531 12.84228516 C97.6528078 12.97619043 99.59686656 13.22668796 101.53463745 13.50177002 C106.28014362 14.09911368 110.96794599 14.1404865 115.74560547 14.12939453 C116.68656067 14.13114685 117.62751587 14.13289917 118.59698486 14.13470459 C121.68707154 14.13908188 124.7771003 14.13619919 127.8671875 14.1328125 C130.02898164 14.13348684 132.1907757 14.13445794 134.35256958 14.13571167 C138.87649256 14.13718316 143.40039574 14.13505214 147.92431641 14.13037109 C153.7030082 14.124681 159.48165347 14.12795176 165.26034355 14.13394356 C169.72319891 14.13756982 174.18604338 14.13640099 178.64889908 14.13381577 C180.77860647 14.13315185 182.90831488 14.13395607 185.03802109 14.13629532 C188.0239089 14.13885508 191.00972309 14.13493444 193.99560547 14.12939453 C194.86345673 14.13141876 195.73130798 14.13344299 196.62545776 14.13552856 C201.7535305 14.11803855 206.77437835 13.79973591 211.87129593 13.2299366 C216.19772221 12.76260826 220.52808632 12.77491068 224.875 12.75 C225.79796875 12.729375 226.7209375 12.70875 227.671875 12.6875 C228.56132812 12.68234375 229.45078125 12.6771875 230.3671875 12.671875 C231.55997314 12.65785645 231.55997314 12.65785645 232.77685547 12.64355469 C235.61750048 13.09900623 236.96185421 13.98522875 239 16 C239.7815534 21.47087379 239.7815534 21.47087379 239 24 C235.30367854 27.57874913 232.77561052 28.53716278 227.68041992 28.81713867 C226.39911697 28.8930574 225.11781403 28.96897614 223.79768372 29.04719543 C222.37950161 29.10957792 220.96126013 29.170622 219.54296875 29.23046875 C218.03768081 29.30581721 216.53240669 29.3814424 215.02714539 29.45732117 C196.78813389 30.31621426 178.52604573 30.3385312 160.27075195 30.31567383 C156.30742022 30.31104652 152.34439576 30.31797406 148.38110352 30.33618164 C121.77391662 30.45720712 95.48900397 29.54856646 69 27 C67.69450699 26.87514725 66.38901398 26.75029449 65.04396057 26.62165833 C-0.79934348 20.22028245 -0.79934348 20.22028245 -9.890625 12.56640625 C-12 10 -12 10 -12.5625 6.9375 C-12 4 -12 4 -10.5 1.625 C-6.95331578 -0.68034474 -4.04889433 -0.55141696 0 0 Z " fill="#040404" transform="translate(99,284)"/>
<path d="M0 0 C7.87031897 4.09430196 13.63008806 10.06693493 17.4375 18.0625 C19.44541614 27.09812265 18.71126587 35.32008834 14.1875 43.4375 C10.16521278 49.69710808 4.39383708 53.73122146 -2.671875 56.046875 C-10.95159205 57.55777227 -19.19283398 57.40464103 -26.55859375 53.12109375 C-32.27559433 48.85068257 -38.50368295 42.70015148 -39.8125 35.4375 C-40.41697927 27.64835283 -40.98116878 20.24632568 -36.8125 13.4375 C-36.42191406 12.78523438 -36.03132813 12.13296875 -35.62890625 11.4609375 C-27.96000063 -0.14018318 -13.13494821 -5.36401026 0 0 Z " fill="#040303" transform="translate(405.8125,266.5625)"/>
<path d="M0 0 C7.87031897 4.09430196 13.63008806 10.06693493 17.4375 18.0625 C19.44541614 27.09812265 18.71126587 35.32008834 14.1875 43.4375 C10.16521278 49.69710808 4.39383708 53.73122146 -2.671875 56.046875 C-10.95159205 57.55777227 -19.19283398 57.40464103 -26.55859375 53.12109375 C-32.27559433 48.85068257 -38.50368295 42.70015148 -39.8125 35.4375 C-40.41697927 27.64835283 -40.98116878 20.24632568 -36.8125 13.4375 C-36.42191406 12.78523437 -36.03132813 12.13296875 -35.62890625 11.4609375 C-27.96000063 -0.14018318 -13.13494821 -5.36401026 0 0 Z " fill="#040303" transform="translate(405.8125,137.5625)"/>
<path d="M0 0 C7.023374 5.6186992 11.91937631 12.25221247 13.265625 21.29296875 C13.7615354 30.72653711 11.10364252 38.2789851 4.9140625 45.44921875 C-2.75538854 52.67911628 -10.08852293 53.89801339 -20.4921875 53.66015625 C-28.28658362 52.79502772 -34.47717207 49.01229389 -39.71484375 43.2421875 C-45.47541786 35.44936841 -46.44503522 26.7140366 -45.1875 17.25 C-42.24750526 8.17698343 -36.17625192 2.15788795 -28.1875 -2.75 C-18.73513328 -7.16110447 -8.76025449 -4.80955149 0 0 Z " fill="#030303" transform="translate(411.1875,398.75)"/>
<path d="M0 0 C12.81160148 2.78739303 25.64675668 4.41395393 38.671875 5.82421875 C40.99479633 6.08158229 43.31771294 6.33898836 45.640625 6.59643555 C52.06520355 7.30135929 58.49258484 7.97629197 64.921875 8.63671875 C65.67380127 8.71490845 66.42572754 8.79309814 67.20043945 8.87365723 C80.12673237 10.20880826 92.99510381 10.66549672 105.98046875 10.86328125 C107.74120224 10.89131081 107.74120224 10.89131081 109.5375061 10.91990662 C115.49840289 11.01186623 121.45842285 11.08353172 127.41992188 11.12036133 C129.62760731 11.14506608 131.83528977 11.17003821 134.04296875 11.1953125 C135.06563339 11.19532257 136.08829803 11.19533264 137.14195251 11.19534302 C143.55183683 11.28591788 147.25908553 11.97392928 151.921875 16.63671875 C151.590301 22.71557544 151.590301 22.71557544 149.68943787 25.33511353 C147.30874572 27.08821742 145.77156979 27.01722599 142.82836914 27.02490234 C141.78218918 27.03420776 140.73600922 27.04351318 139.65812683 27.05310059 C138.51926529 27.04717896 137.38040375 27.04125732 136.20703125 27.03515625 C134.42931084 27.04150085 134.42931084 27.04150085 132.61567688 27.04797363 C128.738308 27.05441243 124.86167035 27.03541475 120.984375 27.01171875 C119.64731971 27.00669194 118.31026315 27.0019931 116.97320557 26.99761963 C96.65125897 26.92109381 76.57023742 26.28007163 56.38415527 23.92181396 C53.66101585 23.60651516 50.93660584 23.30402339 48.21191406 23.00244141 C28.47519406 20.80247687 8.69991505 18.58098074 -10.765625 14.57421875 C-11.87421875 14.35338623 -12.9828125 14.13255371 -14.125 13.9050293 C-19.89684074 12.61148531 -23.52764502 11.49686406 -27.078125 6.63671875 C-27.703125 3.57421875 -27.703125 3.57421875 -27.078125 0.63671875 C-21.31944233 -7.10771656 -7.99180398 -1.82450617 0 0 Z " fill="#040505" transform="translate(114.078125,418.36328125)"/>
<path d="M0 0 C8.6586803 -0.34990177 16.79423106 0.69596792 25.3125 2.1875 C25.9688443 2.30081665 26.6251886 2.4141333 27.30142212 2.53088379 C96.61337764 14.5169648 96.61337764 14.5169648 112.8125 33.06640625 C114 35 114 35 114.5625 38.5 C109.72491735 49.33618514 97.39950699 53.87795324 87 58 C58.34440319 68.77921043 28.32254674 73.62007148 -2 77 C-1.505 76.01 -1.505 76.01 -1 75 C1.47985453 74.40098633 3.93199047 73.90406731 6.4375 73.4375 C27.00933983 69.20528903 52.72251388 62.25772581 66.9375 45.75 C68.8567063 40.78264253 69.22194605 35.77173128 67.0390625 30.8203125 C54.70456438 12.49680952 22.64162527 5.39010705 2.2890625 1.41015625 C1.53367187 1.27480469 0.77828125 1.13945312 0 1 C0 0.67 0 0.34 0 0 Z " fill="#84ACB9" transform="translate(363,22)"/>
<path d="M0 0 C1.92829894 -0.07081706 3.85749647 -0.11591251 5.78662109 -0.15869141 C6.84107422 -0.18447266 7.89552734 -0.21025391 8.98193359 -0.23681641 C12.12634051 0.14821301 13.47732953 0.80936634 15.66162109 3.09130859 C16.35490248 5.79892725 16.14263358 8.34839218 15.66162109 11.09130859 C13.84998842 13.76562349 12.78401033 14.05051218 9.66162109 15.09130859 C0.4057418 15.97646352 -8.91987993 16.21852432 -18.21337891 16.34130859 C-19.07503662 16.36265869 -19.93669434 16.38400879 -20.82446289 16.40600586 C-22.03404663 16.41265259 -22.03404663 16.41265259 -23.26806641 16.41943359 C-23.9820459 16.4287793 -24.69602539 16.438125 -25.43164062 16.44775391 C-27.94622421 15.9776781 -28.79254104 15.09956669 -30.33837891 13.09130859 C-31.27587891 9.65380859 -31.27587891 9.65380859 -31.33837891 6.09130859 C-29.16784392 3.14558254 -27.81655068 2.25069918 -24.33837891 1.09130859 C-22.80406529 0.94395702 -21.26492094 0.84400379 -19.72509766 0.77490234 C-18.35683838 0.71157715 -18.35683838 0.71157715 -16.9609375 0.64697266 C-15.99236816 0.60797852 -15.02379883 0.56898438 -14.02587891 0.52880859 C-13.0392627 0.48852539 -12.05264648 0.44824219 -11.03613281 0.40673828 C-7.35766504 0.26380353 -3.67842818 0.14363459 0 0 Z " fill="#030404" transform="translate(322.33837890625,427.90869140625)"/>
<path d="M0 0 C3.62011046 2.33296007 5.89022378 4.96794755 7.8125 8.8125 C8.38281437 13.48720792 8.25091751 16.93566498 6.125 21.1875 C3.00270043 24.73173195 1.03694494 26.50638372 -3.7421875 27.1640625 C-8.3415812 27.40088765 -12.03674632 27.52578619 -15.75 24.5625 C-19.84391502 19.94372408 -20.74882225 16.45959683 -20.640625 10.35546875 C-19.88427498 6.11078027 -17.48023699 3.47085647 -14.1875 0.8125 C-9.41167018 -1.98744729 -5.17969964 -1.92969202 0 0 Z " fill="#F79B3B" transform="translate(401.1875,410.1875)"/>
<path d="M0 0 C5.34740414 1.95385921 8.45618143 4.91236287 11 10 C11.42806533 15.45783298 10.70488295 19.22137346 8 24 C4.39842739 27.51153329 1.38878399 28.31008996 -3.5 28.5625 C-7.21164402 28.42615389 -9.6284781 28.07847438 -12.5625 25.75 C-16.77769393 20.99439659 -17.40200244 17.64786235 -17.24609375 11.40234375 C-16.76374574 6.69370843 -14.80466455 4.69238578 -11.3125 1.6875 C-7.27081832 -0.37146991 -4.4404958 -0.72824131 0 0 Z " fill="#F79C3C" transform="translate(398,280)"/>
<path d="M0 0 C5.34740414 1.95385921 8.45618143 4.91236287 11 10 C11.4276283 15.45226084 10.77424915 19.25692887 8 24 C3.29048794 27.74838715 -0.62706762 28.70368215 -6.62890625 28.45703125 C-10.61721806 27.68827922 -12.2813085 25.99056066 -15 23 C-17.73075608 18.5238122 -17.52214109 14.09709156 -17 9 C-14.07519418 1.52549625 -7.5663794 -1.24088622 0 0 Z " fill="#F89C3C" transform="translate(398,151)"/>
<path d="M0 0 C3.5635178 3.44856561 5.1513739 5.26357124 5.3125 10.25 C5.25272495 14.89750989 4.1258769 17.4517073 1 21 C-2.9863518 24.62395619 -7.24138162 24.38921044 -12.37890625 24.49609375 C-15.69480943 23.86849359 -16.74312919 22.4201121 -19 20 C-18.45996338 19.4652002 -17.91992676 18.93040039 -17.36352539 18.37939453 C-14.92725624 15.96386294 -12.49483893 13.54448883 -10.0625 11.125 C-9.21236328 10.28324219 -8.36222656 9.44148438 -7.48632812 8.57421875 C-6.67744141 7.76855469 -5.86855469 6.96289062 -5.03515625 6.1328125 C-4.2862915 5.38918457 -3.53742676 4.64555664 -2.76586914 3.87939453 C-0.93702297 2.1128324 -0.93702297 2.1128324 0 0 Z " fill="#E8822E" transform="translate(404,413)"/>
<path d="M0 0 C-0.99 1.485 -0.99 1.485 -2 3 C-5.625 3.1875 -5.625 3.1875 -9 3 C-7 0 -7 0 -5.0625 -0.75 C-3 -1 -3 -1 0 0 Z " fill="#AFBEC4" transform="translate(384,486)"/>
</svg>
